<svg width="612" height="612" xmlns="http://www.w3.org/2000/svg" version="1.1">
 <!-- Block -->

 <!-- Letters -->
 <g>
  <title>Layer 1</title>
  <rect width="612" height="612" fill="#f7df1e" />
  <path transform="rotate(-90 306 306)" id="svg_1" fill="#654ff0" d="m376,0c0,1.08 0,2.16 0,3.3c0,38.76 -31.42,70.17 -70.17,70.17c-38.76,0 -70.17,-31.42 -70.17,-70.17l0,0c0,-1.14 0,-2.22 0,-3.3l-235.66,0l0,612l612,0l0,-612l-236,0z"/>
  <path id="svg_2" fill="#fff" d="m142.16,329.81l40.56,0l27.69,147.47l0.5,0l33.28,-147.47l37.94,0l30.06,149.28l0.59,0l31.56,-149.28l39.78,0l-51.69,216.69l-40.25,0l-29.81,-147.47l-0.78,0l-31.91,147.47l-41,0l-46.52,-216.69zm287.69,0l63.94,0l63.5,216.69l-41.84,0l-13.81,-48.22l-72.84,0l-10.66,48.22l-40.75,0l52.46,-216.69zm24.34,53.41l-17.69,79.5l55.06,0l-20.31,-79.5l-17.06,0z"/>
 </g>
</svg>